<?xml version="1.0" encoding="UTF-8"?>
<svg xmlns="http://www.w3.org/2000/svg" xmlns:xlink="http://www.w3.org/1999/xlink" width="250px" height="250px" viewBox="0 0 250 250" version="1.1">
<g id="surface1">
<rect x="0" y="0" width="250" height="250" style="fill:rgb(1.176471%,28.627451%,56.078431%);fill-opacity:1;stroke:none;"/>
<path style=" stroke:none;fill-rule:nonzero;fill:rgb(97.647059%,61.568627%,11.764706%);fill-opacity:1;" d="M 38.203125 120.203125 L 38.550781 120.105469 C 41.148438 119.332031 43.695312 118.398438 46.179688 117.316406 C 48.699219 116.328125 51.0625 114.980469 53.195312 113.320312 C 55.464844 111.515625 57.171875 109.101562 58.117188 106.363281 C 58.320312 105.914062 58.472656 105.441406 58.5625 104.957031 C 55.152344 109.613281 41.628906 110.097656 41.628906 110.097656 L 44.820312 107.171875 C 35.53125 107.203125 26.480469 110.132812 18.9375 115.554688 C 24.039062 116.105469 28.839844 118.25 32.652344 121.6875 C 34.484375 121.121094 36.351562 120.710938 38.195312 120.222656 M 59.414062 119.746094 C 59.414062 119.746094 46.933594 118.773438 33.976562 122.96875 C 35.707031 124.773438 37.148438 126.832031 38.253906 129.074219 C 45.078125 125.277344 54.511719 120.429688 59.414062 119.746094 M 39.109375 131.019531 C 39.914062 133.089844 40.4375 135.261719 40.652344 137.476562 L 52.527344 125.242188 Z M 45.320312 137.003906 L 45.320312 136.871094 C 45.316406 136.820312 45.300781 136.769531 45.269531 136.726562 C 45.242188 136.683594 45.199219 136.660156 45.152344 136.65625 L 45.230469 136.628906 C 45.285156 136.585938 45.320312 136.523438 45.320312 136.453125 C 45.332031 136.347656 45.269531 136.246094 45.171875 136.207031 C 45.089844 136.179688 45.003906 136.167969 44.917969 136.175781 L 44.609375 136.175781 L 44.609375 137.085938 L 44.785156 137.085938 L 44.785156 136.75 L 44.914062 136.75 C 44.96875 136.746094 45.027344 136.753906 45.078125 136.773438 C 45.136719 136.816406 45.167969 136.890625 45.15625 136.964844 L 45.15625 137.101562 L 45.332031 137.101562 Z M 44.835938 136.292969 L 44.953125 136.292969 C 45.015625 136.285156 45.078125 136.296875 45.136719 136.320312 C 45.175781 136.347656 45.195312 136.390625 45.191406 136.4375 C 45.195312 136.492188 45.160156 136.546875 45.105469 136.5625 C 45.058594 136.570312 45.007812 136.570312 44.960938 136.5625 L 44.835938 136.5625 Z M 44.835938 136.292969 "/>
<path style=" stroke:none;fill-rule:nonzero;fill:rgb(97.647059%,61.568627%,11.764706%);fill-opacity:1;" d="M 45.566406 136.03125 C 45.238281 135.710938 44.710938 135.710938 44.386719 136.03125 C 44.226562 136.1875 44.140625 136.402344 44.140625 136.621094 C 44.140625 136.84375 44.226562 137.058594 44.386719 137.210938 C 44.542969 137.367188 44.753906 137.457031 44.976562 137.457031 C 45.195312 137.457031 45.410156 137.367188 45.566406 137.210938 C 45.886719 136.886719 45.886719 136.359375 45.566406 136.03125 M 44.976562 137.316406 C 44.792969 137.316406 44.617188 137.242188 44.488281 137.109375 C 44.222656 136.839844 44.222656 136.40625 44.488281 136.136719 C 44.617188 136.003906 44.792969 135.929688 44.976562 135.929688 C 45.160156 135.929688 45.335938 136.003906 45.464844 136.136719 C 45.726562 136.40625 45.726562 136.839844 45.464844 137.109375 C 45.335938 137.242188 45.160156 137.316406 44.976562 137.316406 "/>
<path style=" stroke:none;fill-rule:nonzero;fill:rgb(100%,100%,100%);fill-opacity:1;" d="M 81.316406 126.492188 C 81.347656 128.136719 81.09375 129.777344 80.558594 131.335938 C 80.121094 132.613281 79.421875 133.785156 78.503906 134.777344 C 77.667969 135.664062 76.652344 136.355469 75.519531 136.808594 C 74.390625 137.257812 73.1875 137.484375 71.972656 137.480469 C 71.007812 137.484375 70.042969 137.390625 69.097656 137.199219 C 68.222656 137.019531 67.359375 136.765625 66.523438 136.441406 L 66.523438 144.613281 L 64.492188 145.046875 L 64.492188 116.890625 L 65.957031 116.890625 L 66.472656 119.816406 C 67.289062 118.90625 68.21875 118.109375 69.238281 117.4375 C 70.355469 116.75 71.648438 116.414062 72.957031 116.460938 C 74.054688 116.457031 75.140625 116.660156 76.160156 117.066406 C 77.171875 117.472656 78.082031 118.101562 78.820312 118.902344 C 79.636719 119.8125 80.253906 120.882812 80.636719 122.042969 C 81.113281 123.476562 81.34375 124.980469 81.316406 126.492188 Z M 79.195312 126.578125 C 79.195312 123.871094 78.605469 121.816406 77.421875 120.414062 C 76.328125 119.058594 74.667969 118.285156 72.925781 118.320312 C 71.726562 118.300781 70.554688 118.640625 69.550781 119.292969 C 68.425781 120.0625 67.40625 120.976562 66.523438 122.015625 L 66.523438 134.453125 C 67.339844 134.859375 68.195312 135.171875 69.078125 135.386719 C 70.015625 135.605469 70.972656 135.714844 71.933594 135.710938 C 72.910156 135.71875 73.878906 135.535156 74.785156 135.171875 C 75.683594 134.808594 76.480469 134.226562 77.101562 133.484375 C 77.792969 132.640625 78.3125 131.671875 78.636719 130.628906 C 79.035156 129.316406 79.226562 127.949219 79.199219 126.578125 Z M 99.269531 137.222656 L 98.78125 134.5 C 97.746094 135.398438 96.601562 136.164062 95.371094 136.769531 C 93.453125 137.710938 91.257812 137.910156 89.207031 137.328125 C 88.5 137.132812 87.835938 136.804688 87.257812 136.355469 C 86.691406 135.902344 86.238281 135.328125 85.9375 134.667969 C 85.597656 133.914062 85.429688 133.09375 85.449219 132.265625 C 85.429688 131.222656 85.667969 130.191406 86.140625 129.257812 C 86.671875 128.308594 87.449219 127.515625 88.390625 126.96875 C 89.664062 126.226562 91.042969 125.6875 92.480469 125.371094 C 94.523438 124.894531 96.597656 124.570312 98.6875 124.394531 L 98.6875 122.601562 C 98.6875 121.160156 98.292969 120.09375 97.5 119.402344 C 96.5625 118.660156 95.382812 118.292969 94.191406 118.363281 C 93 118.367188 91.816406 118.53125 90.667969 118.851562 C 89.476562 119.175781 88.324219 119.625 87.226562 120.191406 L 86.96875 118.285156 C 88.101562 117.773438 89.273438 117.34375 90.472656 117.007812 C 91.714844 116.671875 92.992188 116.507812 94.277344 116.519531 C 96.355469 116.519531 97.941406 117.03125 99.035156 118.054688 C 100.128906 119.078125 100.683594 120.558594 100.695312 122.5 L 100.695312 137.222656 Z M 98.707031 126.0625 C 96.925781 126.242188 95.15625 126.53125 93.410156 126.929688 C 92.214844 127.191406 91.058594 127.605469 89.972656 128.164062 C 89.207031 128.542969 88.5625 129.125 88.109375 129.847656 C 87.726562 130.527344 87.535156 131.296875 87.546875 132.074219 C 87.546875 133.375 87.953125 134.332031 88.761719 134.953125 C 89.605469 135.582031 90.632812 135.910156 91.6875 135.882812 C 92.90625 135.851562 94.101562 135.546875 95.191406 134.996094 C 96.464844 134.378906 97.644531 133.585938 98.695312 132.636719 Z M 124.011719 126.492188 C 124.042969 128.136719 123.789062 129.777344 123.253906 131.335938 C 122.816406 132.613281 122.117188 133.785156 121.199219 134.777344 C 120.363281 135.664062 119.347656 136.355469 118.214844 136.808594 C 117.085938 137.257812 115.882812 137.484375 114.667969 137.480469 C 113.703125 137.484375 112.738281 137.390625 111.792969 137.199219 C 110.914062 137.019531 110.054688 136.765625 109.21875 136.441406 L 109.21875 144.613281 L 107.1875 145.046875 L 107.1875 116.890625 L 108.648438 116.890625 L 109.167969 119.816406 C 109.984375 118.90625 110.914062 118.109375 111.933594 117.4375 C 113.050781 116.75 114.34375 116.414062 115.652344 116.460938 C 116.742188 116.457031 117.824219 116.660156 118.839844 117.0625 C 119.851562 117.46875 120.761719 118.09375 121.5 118.898438 C 122.316406 119.808594 122.9375 120.875 123.320312 122.035156 C 123.800781 123.472656 124.03125 124.976562 124.011719 126.492188 Z M 121.890625 126.578125 C 121.890625 123.871094 121.300781 121.816406 120.117188 120.414062 C 119.023438 119.058594 117.363281 118.285156 115.617188 118.320312 C 114.421875 118.300781 113.25 118.640625 112.246094 119.292969 C 111.121094 120.0625 110.101562 120.976562 109.21875 122.015625 L 109.21875 134.453125 C 110.035156 134.859375 110.890625 135.171875 111.773438 135.386719 C 112.710938 135.605469 113.667969 135.714844 114.628906 135.710938 C 115.605469 135.714844 116.570312 135.53125 117.476562 135.171875 C 118.382812 134.808594 119.1875 134.226562 119.816406 133.480469 C 120.507812 132.628906 121.027344 131.652344 121.34375 130.605469 C 121.738281 129.300781 121.921875 127.941406 121.890625 126.578125 Z M 144.601562 127.054688 L 130.238281 127.054688 C 130.226562 128.261719 130.378906 129.460938 130.691406 130.625 C 130.953125 131.625 131.394531 132.574219 132 133.417969 C 132.566406 134.191406 133.316406 134.8125 134.179688 135.234375 C 135.121094 135.679688 136.148438 135.902344 137.1875 135.882812 C 138.46875 135.875 139.734375 135.578125 140.886719 135.019531 C 142.113281 134.441406 143.242188 133.683594 144.238281 132.769531 L 144.542969 134.671875 C 143.5625 135.546875 142.457031 136.257812 141.257812 136.789062 C 139.957031 137.371094 138.546875 137.664062 137.125 137.65625 C 135.867188 137.667969 134.621094 137.417969 133.46875 136.921875 C 132.378906 136.445312 131.410156 135.726562 130.636719 134.824219 C 129.820312 133.84375 129.203125 132.714844 128.820312 131.496094 C 128.371094 130.0625 128.152344 128.566406 128.171875 127.0625 C 128.152344 125.574219 128.371094 124.09375 128.820312 122.675781 C 129.207031 121.453125 129.824219 120.3125 130.636719 119.324219 C 132.160156 117.484375 134.4375 116.4375 136.824219 116.472656 C 139.152344 116.410156 141.351562 117.53125 142.671875 119.453125 C 143.347656 120.429688 143.84375 121.523438 144.132812 122.675781 C 144.460938 123.96875 144.625 125.296875 144.621094 126.632812 Z M 142.003906 122.558594 C 141.765625 121.738281 141.394531 120.964844 140.902344 120.269531 C 140.449219 119.625 139.859375 119.09375 139.171875 118.707031 C 138.445312 118.324219 137.632812 118.128906 136.8125 118.148438 C 135.070312 118.0625 133.390625 118.808594 132.289062 120.160156 C 131.148438 121.671875 130.472656 123.484375 130.339844 125.375 L 142.453125 125.375 C 142.425781 124.421875 142.277344 123.472656 142.003906 122.558594 Z M 157.25 118.910156 C 156.488281 119.226562 155.769531 119.640625 155.113281 120.140625 C 154.457031 120.640625 153.859375 121.214844 153.339844 121.851562 C 152.832031 122.464844 152.398438 123.132812 152.042969 123.839844 L 152.042969 137.207031 L 150.027344 137.207031 L 150.027344 116.890625 L 151.371094 116.890625 L 152.015625 121.128906 C 152.429688 120.542969 152.878906 119.980469 153.359375 119.445312 C 153.851562 118.890625 154.402344 118.394531 155 117.953125 C 155.609375 117.503906 156.28125 117.140625 156.988281 116.871094 C 157.722656 116.597656 158.503906 116.457031 159.289062 116.457031 L 159.632812 118.363281 C 158.816406 118.414062 158.011719 118.597656 157.25 118.910156 Z M 174.355469 137.457031 C 173.726562 137.535156 173.089844 137.570312 172.453125 137.5625 C 171.503906 137.574219 170.5625 137.472656 169.640625 137.261719 C 168.847656 137.082031 168.109375 136.726562 167.476562 136.222656 C 166.847656 135.703125 166.367188 135.03125 166.070312 134.273438 C 165.71875 133.320312 165.554688 132.308594 165.585938 131.292969 L 165.585938 120.570312 L 162.660156 120.570312 L 162.660156 116.332031 L 165.585938 116.332031 L 165.585938 109.710938 L 170.6875 108.933594 L 170.6875 116.332031 L 174.953125 116.332031 L 175.597656 120.570312 L 170.683594 120.570312 L 170.683594 130.429688 C 170.628906 131.136719 170.855469 131.835938 171.3125 132.378906 C 171.730469 132.828125 172.441406 133.050781 173.449219 133.050781 C 174.003906 133.0625 174.554688 133.003906 175.09375 132.875 L 175.742188 137.261719 C 175.335938 137.316406 174.875 137.382812 174.355469 137.457031 Z M 187.417969 122.382812 C 186.210938 123.101562 185.179688 124.078125 184.390625 125.238281 L 184.390625 137.222656 L 179.199219 137.222656 L 179.199219 116.332031 L 183.585938 116.332031 L 184.234375 120.527344 C 184.917969 119.324219 185.8125 118.253906 186.875 117.367188 C 188.03125 116.445312 189.460938 115.929688 190.941406 115.90625 L 191.765625 121.039062 C 190.226562 121.128906 188.734375 121.589844 187.417969 122.382812 Z M 206.019531 137.222656 L 205.585938 134.492188 C 204.738281 135.398438 203.75 136.160156 202.660156 136.746094 C 201.417969 137.378906 200.035156 137.6875 198.640625 137.652344 C 197.058594 137.726562 195.511719 137.175781 194.335938 136.117188 C 193.253906 135.09375 192.714844 133.671875 192.714844 131.855469 C 192.714844 129.320312 193.753906 127.4375 195.828125 126.214844 C 197.90625 124.988281 201.0625 124.175781 205.300781 123.777344 L 205.300781 123.164062 C 205.300781 122.039062 204.992188 121.238281 204.371094 120.761719 C 203.578125 120.238281 202.632812 119.992188 201.6875 120.0625 C 200.488281 120.066406 199.292969 120.230469 198.136719 120.550781 C 196.972656 120.875 195.835938 121.28125 194.726562 121.765625 L 194.078125 117.613281 C 195.316406 117.113281 196.589844 116.710938 197.886719 116.402344 C 199.359375 116.066406 200.871094 115.902344 202.382812 115.917969 C 205.09375 115.917969 207.117188 116.457031 208.460938 117.539062 C 209.800781 118.621094 210.46875 120.40625 210.457031 122.898438 L 210.457031 137.21875 L 206.019531 137.21875 Z M 205.28125 126.796875 C 204.027344 126.921875 202.789062 127.167969 201.582031 127.535156 C 200.777344 127.773438 200.015625 128.128906 199.3125 128.589844 C 198.828125 128.910156 198.433594 129.351562 198.167969 129.867188 C 197.953125 130.3125 197.84375 130.800781 197.839844 131.296875 C 197.804688 131.957031 198.050781 132.601562 198.511719 133.070312 C 199.03125 133.523438 199.707031 133.753906 200.394531 133.707031 C 201.285156 133.710938 202.164062 133.507812 202.96875 133.125 C 203.828125 132.707031 204.613281 132.140625 205.28125 131.457031 Z M 221.117188 109.882812 C 221.140625 110.691406 220.808594 111.464844 220.203125 112.003906 C 219.617188 112.546875 218.839844 112.839844 218.039062 112.828125 C 217.222656 112.851562 216.425781 112.554688 215.820312 112.003906 C 215.21875 111.464844 214.886719 110.6875 214.914062 109.882812 C 214.882812 109.058594 215.214844 108.261719 215.820312 107.699219 C 216.414062 107.140625 217.207031 106.835938 218.027344 106.855469 C 218.835938 106.839844 219.617188 107.144531 220.203125 107.699219 C 220.8125 108.261719 221.144531 109.058594 221.117188 109.882812 Z M 215.398438 137.222656 L 215.398438 116.332031 L 220.589844 116.332031 L 220.589844 137.222656 Z M 225.871094 137.222656 L 225.871094 106.8125 L 231.0625 105.988281 L 231.0625 137.222656 Z M 225.871094 137.222656 "/>
</g>
</svg>
